<svg xmlns="http://www.w3.org/2000/svg" viewBox="0 0 320 220">
  <rect width="320" height="220" rx="22" fill="#F7EBDD"/>
  <circle cx="270" cy="48" r="42" fill="#FFFFFF" opacity=".6"/>
  <path d="M162 54c-46 0-78 29-78 70 0 32 22 57 56 65v-34h-22c-6 0-10-4-10-10s4-10 10-10h22v-22h-18c-6 0-10-4-10-10s4-10 10-10h18V64c7-6 14-10 22-10z" fill="#FFE600" stroke="#202124" stroke-width="8" stroke-linejoin="round"/>
  <path d="M174 78c28 12 46 36 46 66" fill="none" stroke="#202124" stroke-width="8" stroke-linecap="round"/>
  <text x="34" y="48" font-family="Arial, sans-serif" font-size="24" font-weight="700" fill="#202124">Calm</text>
</svg>
